<svg width="21" height="21" viewBox="0 0 21 21" fill="none" xmlns="http://www.w3.org/2000/svg">
<path fill-rule="evenodd" clip-rule="evenodd" d="M5.49609 0.727051C6.04838 0.727051 6.49609 1.17477 6.49609 1.72705L6.49609 3.72706L14.4961 3.72705L14.4961 1.72705C14.4961 1.17477 14.9438 0.727051 15.4961 0.727051C16.0484 0.727051 16.4961 1.17477 16.4961 1.72705L16.4961 3.7312C16.994 3.73829 17.4391 3.75746 17.8239 3.8092C18.4794 3.89733 19.1078 4.09607 19.6174 4.60574C20.1271 5.1154 20.3258 5.74375 20.414 6.39926C20.4962 7.01093 20.4962 7.77475 20.4961 8.66125V15.7929C20.4962 16.6794 20.4962 17.4432 20.414 18.0548C20.3258 18.7104 20.1271 19.3387 19.6174 19.8484C19.1078 20.358 18.4794 20.5568 17.8239 20.6449C17.2122 20.7271 16.4484 20.7271 15.5619 20.7271H5.43029C4.5438 20.7271 3.77997 20.7271 3.16831 20.6449C2.51279 20.5568 1.88444 20.358 1.37478 19.8484C0.865116 19.3387 0.666371 18.7104 0.578239 18.0548C0.496004 17.4432 0.496046 16.6794 0.496096 15.7929L0.496099 8.72706L0.496096 8.66123C0.496046 7.77474 0.496004 7.01092 0.578239 6.39926C0.666371 5.74375 0.865116 5.1154 1.37478 4.60574C1.88444 4.09607 2.51279 3.89733 3.16831 3.8092C3.55313 3.75746 3.99817 3.73829 4.49609 3.7312L4.49609 1.72705C4.49609 1.17477 4.94381 0.727051 5.49609 0.727051ZM18.4961 8.72706H2.4961V15.7271C2.4961 16.6981 2.49822 17.3258 2.5604 17.7884C2.61872 18.2221 2.71287 18.358 2.78899 18.4342C2.86512 18.5103 3.00106 18.6044 3.4348 18.6628C3.89731 18.7249 4.52502 18.7271 5.4961 18.7271H15.4961C16.4672 18.7271 17.0949 18.7249 17.5574 18.6628C17.9911 18.6044 18.1271 18.5103 18.2032 18.4342C18.2793 18.358 18.3735 18.2221 18.4318 17.7884C18.494 17.3258 18.4961 16.6981 18.4961 15.7271V8.72706ZM5.49609 11.7271C5.49609 11.2556 5.49609 11.0199 5.64254 10.8735C5.78899 10.7271 6.02469 10.7271 6.49609 10.7271H8.49609C8.9675 10.7271 9.2032 10.7271 9.34965 10.8735C9.49609 11.0199 9.49609 11.2556 9.49609 11.7271C9.49609 12.1985 9.49609 12.4342 9.34965 12.5806C9.2032 12.7271 8.9675 12.7271 8.49609 12.7271H6.49609C6.02469 12.7271 5.78899 12.7271 5.64254 12.5806C5.49609 12.4342 5.49609 12.1985 5.49609 11.7271ZM5.64254 14.8735C5.49609 15.0199 5.49609 15.2556 5.49609 15.7271C5.49609 16.1985 5.49609 16.4342 5.64254 16.5806C5.78899 16.7271 6.02469 16.7271 6.49609 16.7271H8.49609C8.9675 16.7271 9.2032 16.7271 9.34965 16.5806C9.49609 16.4342 9.49609 16.1985 9.49609 15.7271C9.49609 15.2556 9.49609 15.0199 9.34965 14.8735C9.2032 14.7271 8.9675 14.7271 8.49609 14.7271H6.49609C6.02469 14.7271 5.78899 14.7271 5.64254 14.8735ZM11.4961 11.7271C11.4961 11.2556 11.4961 11.0199 11.6425 10.8735C11.789 10.7271 12.0247 10.7271 12.4961 10.7271H14.4961C14.9675 10.7271 15.2032 10.7271 15.3496 10.8735C15.4961 11.0199 15.4961 11.2556 15.4961 11.7271C15.4961 12.1985 15.4961 12.4342 15.3496 12.5806C15.2032 12.7271 14.9675 12.7271 14.4961 12.7271H12.4961C12.0247 12.7271 11.789 12.7271 11.6425 12.5806C11.4961 12.4342 11.4961 12.1985 11.4961 11.7271ZM11.6425 14.8735C11.4961 15.0199 11.4961 15.2556 11.4961 15.7271C11.4961 16.1985 11.4961 16.4342 11.6425 16.5806C11.789 16.7271 12.0247 16.7271 12.4961 16.7271H14.4961C14.9675 16.7271 15.2032 16.7271 15.3496 16.5806C15.4961 16.4342 15.4961 16.1985 15.4961 15.7271C15.4961 15.2556 15.4961 15.0199 15.3496 14.8735C15.2032 14.7271 14.9675 14.7271 14.4961 14.7271H12.4961C12.0247 14.7271 11.789 14.7271 11.6425 14.8735Z" fill="white"/>
</svg>
