<svg width="21" height="22" viewBox="0 0 21 22" fill="none" xmlns="http://www.w3.org/2000/svg">
<path fill-rule="evenodd" clip-rule="evenodd" d="M2.82032 5.88477C2.82032 4.91369 2.82244 4.28598 2.88463 3.82348C2.94294 3.38974 3.03709 3.25379 3.11321 3.17767C3.18934 3.10154 3.32528 3.00739 3.75902 2.94908C4.22153 2.8869 4.84924 2.88477 5.82032 2.88477L13.3554 2.88477C13.0151 3.47312 12.8203 4.1562 12.8203 4.88477L12.8203 18.4973L10.8203 17.8307L7.82032 18.8307L4.82032 17.8307L2.82032 18.4973L2.82032 5.88477ZM14.8203 4.88477C14.8203 3.7802 15.7157 2.88477 16.8203 2.88477C17.9249 2.88477 18.8203 3.7802 18.8203 4.88477V6.88477L14.8203 6.88477V4.88477ZM18.9632 8.88477H14.8203L14.8203 21.2722L10.8203 19.9389L7.82032 20.9389L4.82032 19.9389L0.82032 21.2722L0.820315 5.81894V5.81889C0.820267 4.93242 0.820225 4.16863 0.902459 3.55698C0.990591 2.90147 1.18934 2.27311 1.699 1.76345C2.20866 1.25379 2.83701 1.05504 3.49253 0.966912C4.10419 0.884677 4.86802 0.884718 5.75451 0.884768L16.8203 0.884773C19.0295 0.884771 20.8203 2.67563 20.8203 4.88477V7.02762L20.8203 7.05532C20.8204 7.19733 20.8205 7.36682 20.8061 7.51529C20.7892 7.68893 20.7456 7.93587 20.5904 8.18281C20.4705 8.37362 20.3092 8.53496 20.1184 8.65485C19.8714 8.81002 19.6245 8.85368 19.4508 8.87052C19.3024 8.88492 19.1329 8.88484 18.9909 8.88477L18.9632 8.88477ZM5.82031 4.88498C5.26803 4.88498 4.82031 5.3327 4.82031 5.88498C4.82031 6.43727 5.26803 6.88498 5.82031 6.88498L9.82031 6.88498C10.3726 6.88498 10.8203 6.43727 10.8203 5.88498C10.8203 5.3327 10.3726 4.88498 9.82031 4.88498L5.82031 4.88498ZM7.82031 9.88498C7.82031 10.4373 7.3726 10.885 6.82031 10.885H5.82031C5.26803 10.885 4.82031 10.4373 4.82031 9.88498C4.82031 9.3327 5.26803 8.88498 5.82031 8.88498H6.82031C7.3726 8.88498 7.82031 9.3327 7.82031 9.88498ZM5.82031 12.885C5.26803 12.885 4.82031 13.3327 4.82031 13.885C4.82031 14.4373 5.26803 14.885 5.82031 14.885H8.82031C9.3726 14.885 9.82031 14.4373 9.82031 13.885C9.82031 13.3327 9.3726 12.885 8.82031 12.885H5.82031Z" fill="white"/>
</svg>
