<svg width="19" height="19" viewBox="0 0 19 19" fill="none" xmlns="http://www.w3.org/2000/svg">
<path fill-rule="evenodd" clip-rule="evenodd" d="M0.0966797 9.51315C0.0966797 4.32195 4.30498 0.113647 9.49619 0.113647C14.6874 0.113647 18.8957 4.32195 18.8957 9.51315V14.892C18.8957 15.3547 18.8957 15.7539 18.872 16.0839C18.847 16.4316 18.792 16.7788 18.6422 17.1196C18.3399 17.8075 17.7905 18.3569 17.1026 18.6592C16.7618 18.8089 16.4146 18.864 16.0669 18.889C15.7369 18.9127 15.3377 18.9127 14.875 18.9127H9.49619C4.30498 18.9127 0.0966797 14.7044 0.0966797 9.51315ZM9.49619 2.11365C5.40955 2.11365 2.09668 5.42652 2.09668 9.51315C2.09668 13.5998 5.40955 16.9127 9.49619 16.9127H14.8413C15.3472 16.9127 15.6739 16.9121 15.9235 16.8941C16.1635 16.8769 16.2542 16.8474 16.298 16.8282C16.5273 16.7274 16.7104 16.5443 16.8112 16.315C16.8304 16.2712 16.8599 16.1804 16.8771 15.9405C16.8951 15.6908 16.8957 15.3642 16.8957 14.8583V9.51315C16.8957 5.42652 13.5828 2.11365 9.49619 2.11365Z" fill="white"/>
<path fill-rule="evenodd" clip-rule="evenodd" d="M5.34668 8.4632C5.34668 7.91091 5.79439 7.4632 6.34668 7.4632L12.6463 7.4632C13.1986 7.4632 13.6463 7.91091 13.6463 8.4632C13.6463 9.01548 13.1986 9.4632 12.6463 9.4632L6.34668 9.4632C5.79439 9.4632 5.34668 9.01548 5.34668 8.4632Z" fill="white"/>
<path fill-rule="evenodd" clip-rule="evenodd" d="M8.49609 12.663C8.49609 12.1107 8.94381 11.663 9.49609 11.663H12.6459C13.1982 11.663 13.6459 12.1107 13.6459 12.663C13.6459 13.2152 13.1982 13.663 12.6459 13.663H9.49609C8.94381 13.663 8.49609 13.2152 8.49609 12.663Z" fill="white"/>
</svg>
