<svg width="19" height="21" viewBox="0 0 19 21" fill="none" xmlns="http://www.w3.org/2000/svg">
<path fill-rule="evenodd" clip-rule="evenodd" d="M5.08945 0.882754C5.11132 0.882755 5.13326 0.882756 5.15528 0.882756L13.2211 0.882754C14.1076 0.882704 14.8714 0.882661 15.4831 0.964897C16.1386 1.05303 16.7669 1.25177 17.2766 1.76144C17.7863 2.2711 17.985 2.89945 18.0731 3.55497C18.1554 4.16663 18.1553 4.93045 18.1553 5.81695V10.9486C18.1553 10.9945 18.1553 11.0402 18.1553 11.0855L18.1553 15.9486C18.1553 16.8351 18.1554 17.5989 18.0731 18.2105C17.985 18.8661 17.7863 19.4944 17.2766 20.0041C16.7669 20.5137 16.1386 20.7125 15.4831 20.8006C14.8714 20.8829 14.1076 20.8828 13.2211 20.8828L3.65528 20.8828C1.72228 20.8828 0.155278 19.3158 0.155278 17.3828V5.88276C0.155278 5.86074 0.155277 5.83879 0.155276 5.81693C0.155226 4.93044 0.155183 4.16663 0.237419 3.55497C0.325551 2.89945 0.524296 2.2711 1.03396 1.76144C1.54362 1.25177 2.17197 1.05303 2.82749 0.964897C3.43915 0.882661 4.20296 0.882704 5.08945 0.882754ZM2.15528 14.2196V5.88276C2.15528 4.91168 2.1574 4.28397 2.21958 3.82146C2.2779 3.38772 2.37205 3.25177 2.44817 3.17565C2.5243 3.09953 2.66024 3.00538 3.09398 2.94706C3.55649 2.88488 4.1842 2.88276 5.15528 2.88276H13.1553C14.1264 2.88276 14.7541 2.88488 15.2166 2.94706C15.6503 3.00538 15.7863 3.09953 15.8624 3.17565C15.9385 3.25177 16.0327 3.38772 16.091 3.82146C16.1532 4.28397 16.1553 4.91168 16.1553 5.88276V10.8828C16.1553 11.8538 16.1532 12.4815 16.091 12.9441C16.0327 13.3778 15.9385 13.5137 15.8624 13.5899C15.7863 13.666 15.6503 13.7601 15.2166 13.8184C14.7541 13.8806 14.1264 13.8828 13.1553 13.8828H3.65528C3.11848 13.8828 2.60991 14.0036 2.15528 14.2196ZM16.1553 15.6595C15.9371 15.7257 15.7117 15.7699 15.4831 15.8006C14.8714 15.8829 14.1076 15.8828 13.2211 15.8828L3.65528 15.8828C2.82685 15.8828 2.15528 16.5543 2.15528 17.3828C2.15528 18.2112 2.82685 18.8828 3.65528 18.8828H13.1553C14.1264 18.8828 14.7541 18.8806 15.2166 18.8185C15.6503 18.7601 15.7863 18.666 15.8624 18.5899C15.9385 18.5137 16.0327 18.3778 16.091 17.9441C16.1532 17.4815 16.1553 16.8538 16.1553 15.8828V15.6595Z" fill="white"/>
<path fill-rule="evenodd" clip-rule="evenodd" d="M12.8624 6.17565C13.2529 6.56617 13.2529 7.19933 12.8624 7.58986L9.56949 10.8828C8.78844 11.6638 7.52211 11.6638 6.74106 10.8828L5.44817 9.58986C5.05764 9.19933 5.05764 8.56617 5.44817 8.17564C5.83869 7.78512 6.47186 7.78512 6.86238 8.17565L8.15527 9.46854L11.4482 6.17565C11.8387 5.78512 12.4719 5.78512 12.8624 6.17565Z" fill="white"/>
</svg>
