<svg width="21" height="22" viewBox="0 0 21 22" fill="none" xmlns="http://www.w3.org/2000/svg">
<path fill-rule="evenodd" clip-rule="evenodd" d="M10.2563 0.985413C7.77387 0.985413 5.6398 2.46769 4.68676 4.59117C4.60171 4.78066 4.5449 4.90711 4.50199 4.99734C4.49142 5.01958 4.48287 5.03712 4.47603 5.05082L4.45593 5.05153C4.39125 5.05347 4.30257 5.05358 4.1541 5.05358C1.90732 5.05358 0.0859375 6.87496 0.0859375 9.12174C0.0859375 11.3685 1.90732 13.1899 4.1541 13.1899H4.3286L6.36268 11.1558H4.1541C3.03071 11.1558 2.12002 10.2451 2.12002 9.12174C2.12002 7.99835 3.03071 7.08766 4.1541 7.08766L4.21938 7.08776H4.21939C4.4305 7.08824 4.67628 7.08879 4.88058 7.04767C5.09672 7.00417 5.34662 6.93197 5.59219 6.77301C5.83777 6.61405 6.00596 6.41563 6.13415 6.23625C6.22247 6.11266 6.29212 5.96939 6.339 5.87077C6.39272 5.75781 6.45877 5.61063 6.53755 5.43508L6.54251 5.42405C7.17952 4.00471 8.60398 3.01949 10.2563 3.01949C11.9087 3.01949 13.3332 4.00471 13.9702 5.42405L13.9751 5.43508C14.0539 5.61063 14.12 5.75781 14.1737 5.87077C14.2206 5.96939 14.2902 6.11266 14.3785 6.23625C14.5067 6.41563 14.6749 6.61405 14.9205 6.77301C15.1661 6.93197 15.416 7.00417 15.6321 7.04767C15.8364 7.08879 16.0822 7.08824 16.2933 7.08776H16.2933L16.3586 7.08766C17.482 7.08766 18.3927 7.99835 18.3927 9.12174C18.3927 10.2451 17.482 11.1558 16.3586 11.1558H14.15L16.1841 13.1899H16.3586C18.6054 13.1899 20.4268 11.3685 20.4268 9.12174C20.4268 6.87496 18.6054 5.05358 16.3586 5.05358C16.2101 5.05358 16.1214 5.05347 16.0568 5.05153L16.0367 5.05082C16.0298 5.03711 16.0213 5.01958 16.0107 4.99734C15.9678 4.90711 15.911 4.78066 15.8259 4.59117C14.8729 2.46769 12.7388 0.985413 10.2563 0.985413ZM4.45673 5.08784C4.45672 5.08784 4.45679 5.08772 4.45691 5.0875L4.45694 5.08748L4.45673 5.08784ZM16.056 5.08784C16.056 5.08784 16.0559 5.08773 16.0557 5.08748L16.0558 5.0875L16.056 5.08784Z" fill="white"/>
<path fill-rule="evenodd" clip-rule="evenodd" d="M5.46878 15.9432C5.86596 16.3403 6.50992 16.3403 6.9071 15.9432L9.23906 13.6112L9.23906 20.3092C9.23906 20.8709 9.69441 21.3262 10.2561 21.3262C10.8178 21.3262 11.2731 20.8709 11.2731 20.3092L11.2731 13.6112L13.6051 15.9432C14.0023 16.3403 14.6462 16.3403 15.0434 15.9432C15.4406 15.546 15.4406 14.902 15.0434 14.5048L10.9753 10.4367C10.5781 10.0395 9.93413 10.0395 9.53695 10.4367L5.46878 14.5048C5.0716 14.902 5.0716 15.546 5.46878 15.9432Z" fill="white"/>
</svg>
