<svg width="21" height="22" viewBox="0 0 21 22" fill="none" xmlns="http://www.w3.org/2000/svg">
<path fill-rule="evenodd" clip-rule="evenodd" d="M6.55859 5.89453C6.55859 4.23768 7.90174 2.89453 9.55859 2.89453C11.2154 2.89453 12.5586 4.23768 12.5586 5.89453C12.5586 7.55139 11.2154 8.89453 9.55859 8.89453C7.90174 8.89453 6.55859 7.55139 6.55859 5.89453ZM9.55859 0.894531C6.79717 0.894531 4.55859 3.13311 4.55859 5.89453C4.55859 8.65595 6.79717 10.8945 9.55859 10.8945C12.32 10.8945 14.5586 8.65595 14.5586 5.89453C14.5586 3.13311 12.32 0.894531 9.55859 0.894531ZM9.55971 12.8945C10.0049 12.8945 10.4483 12.92 10.8864 12.9704C9.86874 13.2038 9.04858 13.9547 8.71769 14.9313C7.42344 15.0448 6.20242 15.4176 5.18841 16.0011C3.95622 16.7102 3.13528 17.6669 2.77401 18.6781C2.5882 19.1981 2.01595 19.4691 1.49586 19.2833C0.975775 19.0975 0.704788 18.5253 0.890599 18.0052C1.44093 16.4648 2.62871 15.1667 4.19083 14.2677C5.75352 13.3684 7.64023 12.8945 9.55971 12.8945ZM15.5586 10.6445C16.249 10.6445 16.8086 11.2042 16.8086 11.8945V14.6445H19.5586C20.2489 14.6445 20.8086 15.2042 20.8086 15.8945C20.8086 16.5849 20.2489 17.1445 19.5586 17.1445H16.8086V19.8945C16.8086 20.5849 16.249 21.1445 15.5586 21.1445C14.8682 21.1445 14.3086 20.5849 14.3086 19.8945V17.1445H11.5586C10.8682 17.1445 10.3086 16.5849 10.3086 15.8945C10.3086 15.2042 10.8682 14.6445 11.5586 14.6445H14.3086V11.8945C14.3086 11.2042 14.8682 10.6445 15.5586 10.6445Z" fill="white"/>
</svg>
