<svg width="19" height="22" viewBox="0 0 19 22" fill="none" xmlns="http://www.w3.org/2000/svg">
<path fill-rule="evenodd" clip-rule="evenodd" d="M5.34531 0.735357L5.27699 0.735354C4.35698 0.735302 3.56429 0.735258 2.9295 0.820603C2.2492 0.912067 1.59709 1.11833 1.06816 1.64726C0.539225 2.17619 0.332966 2.8283 0.241501 3.5086C0.156156 4.14339 0.156201 4.93609 0.156253 5.85609L0.156255 5.92441L0.156254 14.3001C0.156217 15.7055 0.156187 16.8643 0.279497 17.7815C0.408957 18.7444 0.691209 19.5948 1.37213 20.2757C2.05304 20.9566 2.90345 21.2389 3.86636 21.3683C4.54899 21.4601 5.36547 21.4836 6.31781 21.4895C6.3393 21.4909 6.36096 21.4915 6.38278 21.4915C6.40068 21.4915 6.41846 21.4911 6.43613 21.4902C6.72754 21.4916 7.03139 21.4916 7.34772 21.4916H11.6454H11.6469H11.6471C11.9626 21.4916 12.2657 21.4916 12.5564 21.4902C12.574 21.4911 12.5918 21.4915 12.6096 21.4915C12.6314 21.4915 12.6531 21.4909 12.6745 21.4895C13.6272 21.4836 14.4439 21.4601 15.1267 21.3683C16.0897 21.2389 16.9401 20.9566 17.621 20.2757C18.3019 19.5948 18.5841 18.7444 18.7136 17.7815C18.8369 16.8643 18.8369 15.7055 18.8369 14.3002V14.3002V14.3002V14.3001L18.8369 5.85612C18.8369 4.9361 18.837 4.1434 18.7516 3.5086C18.6601 2.8283 18.4539 2.17619 17.9249 1.64726C17.396 1.11833 16.7439 0.912067 16.0636 0.820603C15.4288 0.735258 14.6361 0.735302 13.7161 0.735354L5.34531 0.735357ZM13.6475 19.3976C14.1134 19.3831 14.5076 19.3573 14.8502 19.3112C15.5829 19.2127 15.9223 19.039 16.1533 18.808C16.3843 18.577 16.558 18.2376 16.6565 17.5049C16.759 16.7423 16.7612 15.7239 16.7612 14.2269V5.92441C16.7612 4.91661 16.759 4.26517 16.6945 3.78518C16.634 3.33504 16.5363 3.19395 16.4573 3.11495C16.3783 3.03594 16.2372 2.93824 15.787 2.87772C15.307 2.81318 14.6556 2.81098 13.6478 2.81098H5.34531C4.33751 2.81098 3.68607 2.81318 3.20607 2.87772C2.75593 2.93824 2.61485 3.03594 2.53584 3.11495C2.45684 3.19395 2.35913 3.33504 2.29861 3.78518C2.23408 4.26517 2.23188 4.91661 2.23188 5.92441V14.2269C2.23188 15.7239 2.23408 16.7423 2.33661 17.5049C2.43513 18.2376 2.60883 18.577 2.83981 18.808C3.0708 19.039 3.41018 19.2127 4.14293 19.3112C4.48533 19.3573 4.87929 19.3831 5.34497 19.3975L5.34497 17.3403C5.34497 16.7671 5.80962 16.3025 6.38278 16.3025C6.95595 16.3025 7.4206 16.7671 7.4206 17.3403L7.4206 19.416H7.42093H11.5718V17.3403C11.5718 16.7671 12.0365 16.3025 12.6096 16.3025C13.1828 16.3025 13.6475 16.7671 13.6475 17.3403V19.3976ZM5.3457 6.96218C5.3457 6.38902 5.81035 5.92437 6.38351 5.92437L12.6104 5.92437C13.1835 5.92437 13.6482 6.38902 13.6482 6.96218C13.6482 7.53535 13.1835 8 12.6104 8L6.38351 8C5.81035 8 5.3457 7.53535 5.3457 6.96218ZM6.38351 10.0756C5.81035 10.0756 5.3457 10.5403 5.3457 11.1134C5.3457 11.6866 5.81035 12.1512 6.38351 12.1512H12.6104C13.1835 12.1512 13.6482 11.6866 13.6482 11.1134C13.6482 10.5403 13.1835 10.0756 12.6104 10.0756L6.38351 10.0756Z" fill="white"/>
</svg>
