<svg width="22" height="22" viewBox="0 0 22 22" fill="none" xmlns="http://www.w3.org/2000/svg">
<path fill-rule="evenodd" clip-rule="evenodd" d="M10.2822 2.89075L10.3586 2.89075V4.97825C8.36099 4.97825 6.96777 4.98046 5.91658 5.12179C4.8954 5.25909 4.35464 5.51021 3.96948 5.89537C3.58432 6.28053 3.3332 6.8213 3.1959 7.84247C3.05458 8.89366 3.05236 10.2869 3.05236 12.2845V18.547C3.05236 19.0685 3.05458 19.3547 3.08126 19.5532C3.08161 19.5558 3.08196 19.5583 3.08231 19.5608C3.08479 19.5611 3.08732 19.5615 3.08991 19.5618C3.28842 19.5885 3.57457 19.5907 4.09611 19.5907H10.3586C12.3562 19.5907 13.7494 19.5885 14.8006 19.4472C15.8218 19.3099 16.3626 19.0588 16.7477 18.6736C17.1329 18.2885 17.384 17.7477 17.5213 16.7265C17.6626 15.6753 17.6649 14.2821 17.6649 12.2845H19.7524V12.3608C19.7524 14.2641 19.7524 15.7982 19.5902 17.0047C19.4218 18.2573 19.0615 19.312 18.2238 20.1497C17.3862 20.9874 16.3314 21.3477 15.0788 21.5161C13.8723 21.6783 12.3382 21.6783 10.4349 21.6782H4.09611C4.07717 21.6782 4.05824 21.6783 4.03934 21.6783C3.59671 21.6783 3.16655 21.6784 2.81175 21.6307C2.41179 21.577 1.95538 21.4459 1.57627 21.0668C1.19717 20.6877 1.06615 20.2313 1.01238 19.8314C0.96468 19.4766 0.964764 19.0464 0.964851 18.6038C0.964855 18.5849 0.964859 18.5659 0.964859 18.547L0.964858 12.2081C0.964829 10.3049 0.964806 8.77084 1.12702 7.56431C1.29543 6.31166 1.65573 5.25695 2.4934 4.41928C3.33106 3.58162 4.38577 3.22132 5.63842 3.05291C6.84495 2.8907 8.37901 2.89072 10.2822 2.89075Z" fill="white"/>
<path fill-rule="evenodd" clip-rule="evenodd" d="M6.18359 10.1969C6.18359 9.6205 6.6509 9.1532 7.22734 9.1532L13.4898 9.1532C14.0663 9.1532 14.5336 9.6205 14.5336 10.1969C14.5336 10.7734 14.0663 11.2407 13.4898 11.2407L7.22734 11.2407C6.6509 11.2407 6.18359 10.7734 6.18359 10.1969Z" fill="white"/>
<path fill-rule="evenodd" clip-rule="evenodd" d="M6.18359 14.372C6.18359 13.7955 6.6509 13.3282 7.22734 13.3282H10.3586C10.935 13.3282 11.4023 13.7955 11.4023 14.372C11.4023 14.9484 10.935 15.4157 10.3586 15.4157H7.22734C6.6509 15.4157 6.18359 14.9484 6.18359 14.372Z" fill="white"/>
<path fill-rule="evenodd" clip-rule="evenodd" d="M17.6652 0.803223C18.2417 0.803223 18.709 1.27053 18.709 1.84697V3.93447H20.7965C21.3729 3.93447 21.8402 4.40178 21.8402 4.97822C21.8402 5.55467 21.3729 6.02197 20.7965 6.02197H18.709V8.10947C18.709 8.68592 18.2417 9.15322 17.6652 9.15322C17.0888 9.15322 16.6215 8.68592 16.6215 8.10947V6.02197H14.534C13.9575 6.02197 13.4902 5.55467 13.4902 4.97822C13.4902 4.40178 13.9575 3.93447 14.534 3.93447H16.6215L16.6215 1.84697C16.6215 1.27053 17.0888 0.803223 17.6652 0.803223Z" fill="white"/>
</svg>
