<svg width="23" height="23" viewBox="0 0 23 23" fill="none" xmlns="http://www.w3.org/2000/svg">
<path d="M11.29 1.03967C5.36081 1.03967 0.544922 5.85556 0.544922 11.7848C0.544922 17.714 5.36081 22.5299 11.29 22.5299C17.2193 22.5299 22.0352 17.714 22.0352 11.7848C22.0352 5.85556 17.2193 1.03967 11.29 1.03967ZM11.29 21.5978C5.87864 21.5978 1.47703 17.1962 1.47703 11.7848C1.47703 6.37339 5.87864 1.97178 11.29 1.97178C16.7014 1.97178 21.1031 6.37339 21.1031 11.7848C21.1031 17.1962 16.7014 21.5978 11.29 21.5978Z" fill="white" stroke="white" stroke-width="0.7"/>
<path d="M15.9534 12.6754C15.9534 12.8963 15.7743 13.0754 15.5534 13.0754H12.7358C12.4968 13.0754 12.4878 13.0774 12.4878 13.3164V16.117C12.4878 16.338 12.3087 16.517 12.0878 16.517H10.3065C10.0856 16.517 9.90652 16.338 9.90652 16.117V13.3203C9.90652 13.0813 9.90453 13.0754 9.66553 13.0754H6.86484C6.64393 13.0754 6.46484 12.8963 6.46484 12.6754V10.8941C6.46484 10.6732 6.64393 10.4941 6.86484 10.4941H9.65381C9.89281 10.4941 9.90652 10.489 9.90652 10.25V7.45243C9.90652 7.23152 10.0856 7.05243 10.3065 7.05243H12.1117C12.3326 7.05243 12.5117 7.23152 12.5117 7.45243V10.2578C12.5117 10.4968 12.5164 10.4941 12.7554 10.4941H15.5534C15.7743 10.4941 15.9534 10.6732 15.9534 10.8941V12.6754Z" fill="white"/>
</svg>
