<svg width="19" height="24" viewBox="0 0 19 24" fill="none" xmlns="http://www.w3.org/2000/svg">
<path d="M13.3086 3.5407C14.8416 3.5407 15.6081 3.5407 16.1587 3.90861C16.3971 4.06788 16.6017 4.27254 16.761 4.51091C17.1289 5.06152 17.1289 5.82802 17.1289 7.36101V17.7304C17.1289 19.7886 17.1289 20.8177 16.4895 21.4571C15.8501 22.0965 14.821 22.0965 12.7628 22.0965H6.21373C4.15554 22.0965 3.12645 22.0965 2.48705 21.4571C1.84766 20.8177 1.84766 19.7886 1.84766 17.7304V7.36101C1.84766 5.82802 1.84766 5.06152 2.21556 4.51091C2.37484 4.27254 2.5795 4.06788 2.81786 3.90861C3.36848 3.5407 4.13497 3.5407 5.66797 3.5407M8.39676 5.72374H10.5798C11.7855 5.72374 12.7628 4.74636 12.7628 3.5407C12.7628 2.33504 11.7855 1.35767 10.5798 1.35767H8.39676C7.19111 1.35767 6.21373 2.33504 6.21373 3.5407C6.21373 4.74636 7.19111 5.72374 8.39676 5.72374Z" stroke="white" stroke-width="2"/>
<path d="M6.21387 11.1813L12.763 11.1813" stroke="white" stroke-width="2" stroke-linecap="round"/>
<path d="M6.21387 15.5474L10.5799 15.5474" stroke="white" stroke-width="2" stroke-linecap="round"/>
</svg>
