<svg width="19" height="22" viewBox="0 0 19 22" fill="none" xmlns="http://www.w3.org/2000/svg">
<path fill-rule="evenodd" clip-rule="evenodd" d="M4.26758 5.831C4.26758 3.03374 6.5352 0.766113 9.33247 0.766113C12.1297 0.766113 14.3974 3.03374 14.3974 5.831V6.84722L14.3972 6.86659C14.9208 6.87295 15.3874 6.8915 15.7885 6.94543C16.444 7.03356 17.0724 7.2323 17.582 7.74197C18.0917 8.25163 18.2905 8.87998 18.3786 9.53549C18.4608 10.1472 18.4608 10.911 18.4607 11.7975L18.4607 14.1285V14.1285V14.1285C18.4608 15.4826 18.4608 16.5993 18.342 17.483C18.2172 18.4108 17.9453 19.2303 17.2892 19.8864C16.633 20.5425 15.8136 20.8145 14.8858 20.9392C14.002 21.058 12.8855 21.058 11.5314 21.0579H11.5313H7.1306H7.13053C5.77644 21.058 4.65985 21.058 3.77611 20.9392C2.84828 20.8145 2.02886 20.5425 1.37275 19.8864C0.716641 19.2303 0.444672 18.4108 0.319929 17.483C0.201111 16.5993 0.20114 15.4826 0.201176 14.1285L0.201177 11.8633L0.201174 11.7975C0.201124 10.911 0.201082 10.1472 0.283317 9.53549C0.371449 8.87998 0.570194 8.25163 1.07986 7.74197C1.58952 7.2323 2.21787 7.03356 2.87339 6.94543C3.27528 6.89139 3.74286 6.87288 4.26776 6.86655L4.26758 6.84722V5.831ZM12.3974 6.84722L12.3975 6.86328L6.26745 6.86329L6.26758 6.84722V5.831C6.26758 4.13831 7.63977 2.76611 9.33247 2.76611C11.0252 2.76611 12.3974 4.13831 12.3974 5.831V6.84722ZM3.13988 8.92759C2.70614 8.98591 2.57019 9.08006 2.49407 9.15618C2.41795 9.2323 2.3238 9.36825 2.26548 9.80199C2.2033 10.2645 2.20118 10.8922 2.20118 11.8633V14.0579C2.20118 15.5004 2.2033 16.4817 2.30209 17.2165C2.39702 17.9226 2.56439 18.2496 2.78696 18.4722C3.00953 18.6947 3.33656 18.8621 4.04261 18.957C4.77743 19.0558 5.75869 19.0579 7.20118 19.0579H11.4607C12.9032 19.0579 13.8845 19.0558 14.6193 18.957C15.3253 18.8621 15.6524 18.6947 15.8749 18.4722C16.0975 18.2496 16.2649 17.9226 16.3598 17.2165C16.4586 16.4817 16.4607 15.5004 16.4607 14.058V11.8633C16.4607 10.8922 16.4586 10.2645 16.3964 9.80199C16.3381 9.36825 16.244 9.2323 16.1678 9.15618C16.0917 9.08006 15.9558 8.98591 15.522 8.92759C15.0595 8.86541 14.4318 8.86329 13.4607 8.86329H5.20118C4.2301 8.86329 3.60239 8.86541 3.13988 8.92759ZM9.33127 15.9931C10.4538 15.9931 11.3637 15.0832 11.3637 13.9607C11.3637 12.8382 10.4538 11.9282 9.33127 11.9282C8.20878 11.9282 7.29883 12.8382 7.29883 13.9607C7.29883 15.0832 8.20878 15.9931 9.33127 15.9931Z" fill="white"/>
</svg>
