<svg width="57" height="64" viewBox="0 0 57 64" fill="none" xmlns="http://www.w3.org/2000/svg">
<path opacity="0.7" d="M33.0241 13.7674H39.9418L29.3535 2.62891V10.0826C29.3535 12.1018 30.9912 13.7675 33.0239 13.7675L33.0241 13.7674Z" fill="#8A94A4"/>
<path opacity="0.4" d="M21.5471 41.8601H9.27876C8.6576 41.8601 8.14941 41.3524 8.14941 40.7309C8.14941 40.1097 8.6576 39.6015 9.27876 39.6015H22.2951C23.0148 37.7666 23.9748 36.2132 25.1609 34.6604H9.27876C8.6576 34.6604 8.14941 34.1524 8.14941 33.5309C8.14941 32.9099 8.6576 32.4017 9.27876 32.4017H27.3069C30.6949 29.4369 35.1842 27.5455 40.0829 27.5455C40.5486 27.5455 40.9301 27.5876 41.4949 27.6302V16.0254H33.0242C29.7491 16.0254 27.095 13.3432 27.095 10.0819V0.919922H5.43893C2.64352 0.919922 0.413086 3.20678 0.413086 6.01615V49.1026C0.413086 51.9119 2.64352 54.1424 5.43906 54.1424H22.4502C21.4763 51.8838 20.9398 49.3426 20.9398 46.6885C20.9255 45.0228 21.1516 43.4131 21.5471 41.8601ZM9.27876 25.3429H23.5799C24.2011 25.3429 24.7093 25.8511 24.7093 26.4727C24.7093 27.0938 24.2011 27.602 23.5799 27.602H9.27876C8.6576 27.602 8.14941 27.0938 8.14941 26.4728C8.14941 25.8511 8.6576 25.3431 9.27876 25.3431V25.3429Z" fill="#8A94A4"/>
<path d="M40.0684 29.8457C30.7653 29.8457 23.1982 37.4123 23.1982 46.7159C23.1982 56.019 30.7653 63.586 40.0684 63.586C49.372 63.586 56.9391 56.019 56.9391 46.7159C56.9391 37.4123 49.372 29.8457 40.0684 29.8457ZM49.09 46.9697C48.8783 47.1676 48.5957 47.2667 48.3275 47.2667C48.031 47.2667 47.7346 47.1394 47.5084 46.9133L41.2122 40.1371V56.259C41.2122 56.8805 40.704 57.3887 40.0828 57.3887C39.4618 57.3887 38.9536 56.8805 38.9536 56.259V40.1232L32.6291 46.8995C32.2055 47.3512 31.4711 47.3795 31.0194 46.9558C30.568 46.5323 30.5393 45.8122 30.963 45.3604L39.2357 36.4805C39.4475 36.2548 39.7439 36.1276 40.0685 36.1276C40.3936 36.1276 40.6757 36.2549 40.9019 36.4805L49.1747 45.3603C49.5701 45.8267 49.5414 46.5466 49.09 46.9698V46.9697Z" fill="#002952"/>
</svg>
